<svg xmlns="http://www.w3.org/2000/svg" viewBox="0 0 1200 720" role="img"><rect width="1200" height="720" fill="#fff7ed"/><rect x="70" y="70" width="1060" height="520" rx="34" fill="#fff" stroke="#eaded7"/><text x="110" y="125" font-family="sans-serif" font-size="40" font-weight="900" fill="#10233f">お連れ様1人まで無料</text><text x="110" y="170" font-family="sans-serif" font-size="24" font-weight="700" fill="#51606f">夫婦・カップル・友人と、利用回数をシェアできます</text><rect x="110" y="215" width="980" height="170" rx="24" fill="#eef8f8"/><g transform="translate(180 420)"><rect x="0" y="0" width="230" height="40" rx="20" fill="#10233f"/><path d="M46 40 L16 105 M184 40 L216 105" stroke="#10233f" stroke-width="15" stroke-linecap="round"/><path d="M80 0 V-45 H150 V0" stroke="#10233f" stroke-width="14" stroke-linecap="round" fill="none"/></g><g transform="translate(640 240)"><circle cx="90" cy="78" r="56" fill="#1db5a9"/><circle cx="255" cy="78" r="56" fill="#f2994a"/><rect x="30" y="150" width="120" height="185" rx="28" fill="#10233f"/><rect x="195" y="150" width="120" height="185" rx="28" fill="#17324d"/><path d="M148 205 C176 230 205 230 230 205" stroke="#f2994a" stroke-width="20" stroke-linecap="round" fill="none"/></g><g font-family="sans-serif" font-weight="900" text-anchor="middle"><rect x="120" y="610" width="220" height="54" rx="27" fill="#10233f"/><text x="230" y="646" fill="#fff" font-size="22">夫婦で</text><rect x="370" y="610" width="220" height="54" rx="27" fill="#10233f"/><text x="480" y="646" fill="#fff" font-size="22">カップルで</text><rect x="620" y="610" width="220" height="54" rx="27" fill="#10233f"/><text x="730" y="646" fill="#fff" font-size="22">親子で</text><rect x="870" y="610" width="220" height="54" rx="27" fill="#10233f"/><text x="980" y="646" fill="#fff" font-size="22">友人と</text></g></svg>