<svg xmlns="http://www.w3.org/2000/svg" viewBox="0 0 1200 760" role="img" aria-labelledby="title desc">
  <title id="title">完全個室ジムで安心して運動を始める女性</title>
  <desc id="desc">明るく清潔な完全個室ジムの中で、初心者の女性が安心して立っているイメージ。</desc>
  <defs>
    <linearGradient id="bg" x1="0" y1="0" x2="1" y2="1">
      <stop offset="0" stop-color="#f6fbff"/>
      <stop offset="0.55" stop-color="#ffffff"/>
      <stop offset="1" stop-color="#eaf5f3"/>
    </linearGradient>
    <linearGradient id="floor" x1="0" y1="0" x2="1" y2="0">
      <stop offset="0" stop-color="#d9e1e5"/>
      <stop offset="1" stop-color="#f3f6f7"/>
    </linearGradient>
    <filter id="shadow" x="-20%" y="-20%" width="140%" height="140%">
      <feDropShadow dx="0" dy="18" stdDeviation="18" flood-color="#0f2338" flood-opacity="0.18"/>
    </filter>
  </defs>
  <rect width="1200" height="760" fill="url(#bg)"/>
  <path d="M0 560 L1200 500 L1200 760 L0 760 Z" fill="url(#floor)"/>
  <rect x="80" y="94" width="1040" height="520" rx="34" fill="#ffffff" filter="url(#shadow)"/>
  <rect x="110" y="124" width="980" height="230" rx="26" fill="#f3f8fb"/>
  <rect x="146" y="160" width="230" height="160" rx="18" fill="#dbe9ee"/>
  <rect x="410" y="160" width="230" height="160" rx="18" fill="#dbe9ee"/>
  <rect x="674" y="160" width="230" height="160" rx="18" fill="#dbe9ee"/>
  <line x1="262" y1="160" x2="262" y2="320" stroke="#ffffff" stroke-width="10"/>
  <line x1="526" y1="160" x2="526" y2="320" stroke="#ffffff" stroke-width="10"/>
  <line x1="790" y1="160" x2="790" y2="320" stroke="#ffffff" stroke-width="10"/>
  <g transform="translate(160 365)" fill="none" stroke="#172b4d" stroke-linecap="round" stroke-linejoin="round">
    <rect x="0" y="0" width="220" height="190" rx="12" stroke-width="18"/>
    <path d="M28 178 H192" stroke-width="18"/>
    <path d="M110 0 V190" stroke-width="12" opacity=".6"/>
    <path d="M-25 80 H245" stroke-width="14"/>
  </g>
  <g transform="translate(430 438)" fill="none" stroke="#172b4d" stroke-linecap="round">
    <rect x="0" y="38" width="245" height="38" rx="19" fill="#172b4d" stroke="none" opacity=".9"/>
    <path d="M48 76 L18 140 M197 76 L228 140" stroke-width="16"/>
    <path d="M90 38 V0 H157 V38" stroke-width="14"/>
  </g>
  <g transform="translate(815 374)">
    <rect x="0" y="0" width="118" height="205" rx="14" fill="#172b4d" opacity=".92"/>
    <g fill="#ffffff" opacity=".92">
      <circle cx="30" cy="36" r="15"/><circle cx="88" cy="36" r="15"/>
      <circle cx="30" cy="82" r="15"/><circle cx="88" cy="82" r="15"/>
      <circle cx="30" cy="128" r="15"/><circle cx="88" cy="128" r="15"/>
    </g>
  </g>
  <g transform="translate(728 342)">
    <circle cx="98" cy="45" r="44" fill="#f2c6ad"/>
    <path d="M47 101 C76 70 129 70 158 101 L177 250 H28 Z" fill="#f2994a"/>
    <path d="M78 106 L92 190 L112 190 L126 106" fill="#ffffff" opacity=".88"/>
    <path d="M58 248 H91 L86 352 H44 Z" fill="#17324d"/>
    <path d="M114 248 H148 L166 352 H124 Z" fill="#17324d"/>
    <path d="M42 121 L-8 186" stroke="#f2c6ad" stroke-width="24" stroke-linecap="round"/>
    <path d="M164 122 L218 186" stroke="#f2c6ad" stroke-width="24" stroke-linecap="round"/>
    <circle cx="-9" cy="188" r="18" fill="#1db5a9"/>
    <path d="M70 45 C94 78 137 57 137 27 C126 -12 65 -10 56 33 C52 50 61 67 70 78" fill="#3a2c26" opacity=".95"/>
    <path d="M80 46 C94 57 109 57 122 47" stroke="#8a4a36" stroke-width="6" stroke-linecap="round" fill="none"/>
  </g>
  <rect x="110" y="610" width="980" height="8" rx="4" fill="#d7e1e5"/>
  <text x="98" y="68" fill="#10233f" font-family="sans-serif" font-size="32" font-weight="800">行徳ジム24</text>
</svg>
